<svg xmlns="http://www.w3.org/2000/svg" viewBox="0 0 122.35 195.23"><defs><style>.cls-1{fill:#1d1d1b;}</style></defs><g id="Layer_2" data-name="Layer 2"><g id="Layer_1-2" data-name="Layer 1"><rect class="cls-1" y="2.94" width="7.57" height="133.99" rx="1.42"/><rect class="cls-1" x="45.64" y="-11.06" width="6.34" height="87.42" rx="1.2" transform="translate(37.39 -24.95) rotate(45)"/><rect class="cls-1" x="66.89" y="-10.52" width="6.34" height="87.42" rx="1.2" transform="translate(43.99 -39.82) rotate(45)"/><rect class="cls-1" x="86.2" y="-10.04" width="6.34" height="87.42" rx="1.2" transform="translate(49.99 -53.33) rotate(45)"/><rect class="cls-1" x="44.94" y="58.7" width="6.43" height="89.2" rx="1.2" transform="translate(-58.94 64.31) rotate(-45)"/><rect class="cls-1" x="66.11" y="58.46" width="6.43" height="89.87" rx="1.2" transform="translate(-52.81 79.31) rotate(-45)"/><rect class="cls-1" x="85.82" y="58.42" width="6.43" height="89.21" rx="1.2" transform="translate(-46.77 93.13) rotate(-45)"/><path class="cls-1" d="M.18,143.77A.72.72,0,0,1,1,143h.69a.73.73,0,0,1,.78.81v9.1H6.3l5.81-9.36a1,1,0,0,1,1-.55h.81c.65,0,.88.42.55,1l-6.24,9.81v.07l6.7,11.05c.35.52.09.94-.52.94h-.91a1,1,0,0,1-.95-.55L6.3,154.89H2.43V165a.73.73,0,0,1-.78.81H1A.72.72,0,0,1,.18,165Z"/><path class="cls-1" d="M18.29,150.27a.73.73,0,0,1,.81-.81h.59a.72.72,0,0,1,.77.81v1.89a5.79,5.79,0,0,1-.12,1.17h.06a7.22,7.22,0,0,1,6.6-4.26c4.06,0,5.49,2.31,5.49,6.34V165a.73.73,0,0,1-.81.81h-.62a.71.71,0,0,1-.78-.81v-9c0-2.57-.42-4.85-3.57-4.85a6.34,6.34,0,0,0-6.21,6.67V165a.71.71,0,0,1-.78.81H19.1a.73.73,0,0,1-.81-.81Z"/><path class="cls-1" d="M37.07,150.27a.71.71,0,0,1,.78-.81h.62a.73.73,0,0,1,.81.81v9c0,2.57.39,4.84,3.55,4.84,3.73,0,6-3.28,6-6.82v-7a.73.73,0,0,1,.81-.81h.62a.71.71,0,0,1,.78.81V165a.71.71,0,0,1-.78.81h-.58a.71.71,0,0,1-.78-.81v-1.89a7.64,7.64,0,0,1,.09-1.17H49a7.08,7.08,0,0,1-6.44,4.26c-3.86,0-5.46-2.08-5.46-6.34Z"/><path class="cls-1" d="M55.47,151.44H54.1a.69.69,0,0,1-.78-.78v-.26a.71.71,0,0,1,.78-.81h1.4v-3.83a.74.74,0,0,1,.81-.82h.59a.72.72,0,0,1,.78.82v3.83H61a.73.73,0,0,1,.81.81v.26a.71.71,0,0,1-.81.78H57.68v8.2c0,3.77,2.3,4.22,3.57,4.29.65.06.88.26.88.81v.42c0,.52-.26.78-.91.78-3.58,0-5.75-2.18-5.75-6Z"/><path class="cls-1" d="M64.21,163.21l.26-.32a.71.71,0,0,1,1.1-.13,7.11,7.11,0,0,0,4.33,1.49c1.82,0,3.31-.91,3.31-2.63,0-3.67-8.74-2.57-8.74-8,0-3,2.57-4.59,5.56-4.59a7.58,7.58,0,0,1,4.48,1.33.71.71,0,0,1,.23,1.08l-.23.35c-.26.46-.65.49-1.1.23a6.16,6.16,0,0,0-3.51-1c-1.73,0-3.22.75-3.22,2.54,0,3.77,8.71,2.56,8.71,8,0,2.69-2.28,4.61-5.53,4.61a8.53,8.53,0,0,1-5.52-1.88A.73.73,0,0,1,64.21,163.21Z"/><path class="cls-1" d="M79.87,151.44H78.51a.69.69,0,0,1-.78-.78v-.26a.71.71,0,0,1,.78-.81h1.4v-3.83a.74.74,0,0,1,.81-.82h.58a.72.72,0,0,1,.78.82v3.83H85.4a.73.73,0,0,1,.81.81v.26a.71.71,0,0,1-.81.78H82.08v8.2c0,3.77,2.31,4.22,3.58,4.29.65.06.88.26.88.81v.42c0,.52-.26.78-.91.78-3.58,0-5.76-2.18-5.76-6Z"/><path class="cls-1" d="M98.2,155.8h1v-.52c0-3.15-1.73-4.22-4-4.22a7.76,7.76,0,0,0-4,1.13.76.76,0,0,1-1.1-.26l-.2-.32a.74.74,0,0,1,.23-1.11,9.93,9.93,0,0,1,5.2-1.43c3.9,0,6.08,2.18,6.08,6.28V165a.71.71,0,0,1-.78.81h-.52a.73.73,0,0,1-.82-.81v-1.3a6.84,6.84,0,0,1,.1-1.24h-.06a6.11,6.11,0,0,1-5.53,3.74c-2.76,0-5.52-1.62-5.52-4.78C88.23,156.09,95.05,155.8,98.2,155.8Zm-4.06,8.55c3.15,0,5-3.25,5-6.11v-.78h-.91c-2.57,0-7.74.1-7.74,3.77C90.5,162.76,91.7,164.35,94.14,164.35Z"/><path class="cls-1" d="M112.44,149.07a5.86,5.86,0,0,1,5.36,3.28h.07a7.66,7.66,0,0,1-.1-1.23v-7.35a.73.73,0,0,1,.81-.81h.62a.71.71,0,0,1,.78.81V165a.71.71,0,0,1-.78.81h-.55a.72.72,0,0,1-.82-.78V163.8a3.76,3.76,0,0,1,.13-1h-.06a6.07,6.07,0,0,1-5.69,3.41c-4.39,0-7.12-3.51-7.12-8.58S108.15,149.07,112.44,149.07Zm.1,15.15c2.73,0,5.29-1.95,5.29-6.6,0-3.31-1.69-6.53-5.2-6.53-2.89,0-5.26,2.4-5.26,6.53S109.48,164.22,112.54,164.22Z"/><path class="cls-1" d="M4.77,182.52v-.06a5.08,5.08,0,0,1-3.15-5.08c0-3.51,2.66-5.78,6.82-5.78h1.63a.71.71,0,0,1,.78.81v.36a.71.71,0,0,1-.78.81H8.47c-2.63,0-4.55,1.56-4.55,3.93,0,1.53.65,4.13,4.91,4.13h4.81V179.2a.71.71,0,0,1,.81-.78h.62c.52,0,.81.23.81.72v2.5h2.31a.69.69,0,0,1,.78.78v.42a.72.72,0,0,1-.78.82H15.88V187c0,5.47-3,8.23-7.57,8.23s-7.7-2.89-7.7-6.7A6.12,6.12,0,0,1,4.77,182.52Zm3.54,10.6c3.22,0,5.33-1.79,5.33-6.18v-3.28H8.83c-4,0-5.91,1.88-5.91,4.74C2.92,191,4.93,193.12,8.31,193.12Z"/><path class="cls-1" d="M25.76,172.8a.71.71,0,0,1,.78-.81h.68a.73.73,0,0,1,.79.81v9.59H41.27V172.8a.71.71,0,0,1,.78-.81h.65a.73.73,0,0,1,.81.81V194a.73.73,0,0,1-.81.81h-.65a.71.71,0,0,1-.78-.81V184.4H28V194a.73.73,0,0,1-.79.81h-.68a.71.71,0,0,1-.78-.81Z"/><path class="cls-1" d="M55.73,178.1a8.57,8.57,0,1,1-8.61,8.48A8.46,8.46,0,0,1,55.73,178.1Zm0,15.15a6.45,6.45,0,0,0,6.34-6.67,6.36,6.36,0,1,0-12.71,0A6.45,6.45,0,0,0,55.76,193.25Z"/><path class="cls-1" d="M67.62,172.8a.71.71,0,0,1,.78-.81H69a.73.73,0,0,1,.81.81v17.78c0,2,1,2.28,1.69,2.37a.67.67,0,0,1,.69.72v.49c0,.48-.23.81-.85.81-1.33,0-3.74-.42-3.74-4Z"/><path class="cls-1" d="M81.86,178.1c4.35,0,6.82,3.15,6.82,7.8a.81.81,0,0,1-.84.81H76.07c.1,4.16,3,6.54,6.34,6.54a7,7,0,0,0,4.29-1.5.67.67,0,0,1,1.07.2l.26.39a.75.75,0,0,1-.23,1.07,9.28,9.28,0,0,1-5.46,1.82,8.26,8.26,0,0,1-8.54-8.55C73.8,181.32,77.44,178.1,81.86,178.1Zm4.58,7c-.13-3.45-2.21-5.14-4.65-5.14a5.63,5.63,0,0,0-5.62,5.14Z"/><path class="cls-1" d="M91.9,179.3a.73.73,0,0,1,.81-.81h.59a.73.73,0,0,1,.78.81v1.89a5.36,5.36,0,0,1-.13,1.17H94a7.22,7.22,0,0,1,6.6-4.26c4.06,0,5.49,2.31,5.49,6.34V194a.73.73,0,0,1-.81.81h-.62a.71.71,0,0,1-.78-.81v-9c0-2.56-.42-4.84-3.57-4.84a6.34,6.34,0,0,0-6.21,6.66V194a.71.71,0,0,1-.78.81h-.62a.73.73,0,0,1-.81-.81Z"/></g></g></svg>